<svg width="734" height="99" viewBox="0 0 734 99" fill="none" xmlns="http://www.w3.org/2000/svg">
<g filter="url(#filter0_i_2_126)">
<path d="M37.724 80.536C32.348 80.536 27.356 79.704 22.748 78.04C18.204 76.312 14.236 73.88 10.844 70.744C7.516 67.608 4.924 63.896 3.068 59.608C1.212 55.32 0.284 50.584 0.284 45.4C0.284 40.216 1.212 35.48 3.068 31.192C4.924 26.904 7.516 23.192 10.844 20.056C14.236 16.92 18.204 14.52 22.748 12.856C27.356 11.128 32.348 10.264 37.724 10.264C44.316 10.264 50.14 11.416 55.196 13.72C60.316 16.024 64.54 19.352 67.868 23.704L53.564 36.472C51.58 33.976 49.372 32.056 46.94 30.712C44.572 29.304 41.884 28.6 38.876 28.6C36.508 28.6 34.364 28.984 32.444 29.752C30.524 30.52 28.86 31.64 27.452 33.112C26.108 34.584 25.052 36.376 24.284 38.488C23.516 40.536 23.132 42.84 23.132 45.4C23.132 47.96 23.516 50.296 24.284 52.408C25.052 54.456 26.108 56.216 27.452 57.688C28.86 59.16 30.524 60.28 32.444 61.048C34.364 61.816 36.508 62.2 38.876 62.2C41.884 62.2 44.572 61.528 46.94 60.184C49.372 58.776 51.58 56.824 53.564 54.328L67.868 67.096C64.54 71.384 60.316 74.712 55.196 77.08C50.14 79.384 44.316 80.536 37.724 80.536ZM99.9815 79.96C94.0295 79.96 88.7495 78.808 84.1415 76.504C79.5975 74.136 76.0135 70.904 73.3895 66.808C70.7655 62.712 69.4535 58.008 69.4535 52.696C69.4535 47.384 70.7655 42.68 73.3895 38.584C76.0135 34.488 79.5975 31.288 84.1415 28.984C88.7495 26.68 94.0295 25.528 99.9815 25.528C105.934 25.528 111.214 26.68 115.822 28.984C120.43 31.288 124.014 34.488 126.574 38.584C129.198 42.68 130.51 47.384 130.51 52.696C130.51 58.008 129.198 62.712 126.574 66.808C124.014 70.904 120.43 74.136 115.822 76.504C111.214 78.808 105.934 79.96 99.9815 79.96ZM99.9815 63.064C101.582 63.064 103.022 62.68 104.302 61.912C105.582 61.144 106.606 59.992 107.374 58.456C108.142 56.856 108.526 54.936 108.526 52.696C108.526 50.392 108.142 48.504 107.374 47.032C106.606 45.496 105.582 44.344 104.302 43.576C103.022 42.808 101.582 42.424 99.9815 42.424C98.3815 42.424 96.9415 42.808 95.6615 43.576C94.3815 44.344 93.3575 45.496 92.5895 47.032C91.8215 48.504 91.4375 50.392 91.4375 52.696C91.4375 54.936 91.8215 56.856 92.5895 58.456C93.3575 59.992 94.3815 61.144 95.6615 61.912C96.9415 62.68 98.3815 63.064 99.9815 63.064ZM137.3 79V7.768H158.996V79H137.3ZM168.613 79V26.488H190.309V79H168.613ZM179.461 22.264C175.493 22.264 172.325 21.208 169.957 19.096C167.589 16.984 166.405 14.36 166.405 11.224C166.405 8.088 167.589 5.46399 169.957 3.352C172.325 1.24 175.493 0.183996 179.461 0.183996C183.429 0.183996 186.597 1.176 188.965 3.16C191.333 5.144 192.517 7.70399 192.517 10.84C192.517 14.168 191.333 16.92 188.965 19.096C186.597 21.208 183.429 22.264 179.461 22.264ZM236.405 25.528C240.437 25.528 244.085 26.36 247.349 28.024C250.613 29.624 253.173 32.152 255.029 35.608C256.949 39.064 257.909 43.544 257.909 49.048V79H236.213V52.792C236.213 49.528 235.637 47.224 234.485 45.88C233.333 44.472 231.765 43.768 229.781 43.768C228.309 43.768 226.933 44.12 225.653 44.824C224.437 45.464 223.445 46.552 222.677 48.088C221.973 49.624 221.621 51.704 221.621 54.328V79H199.925V26.488H220.565V41.848L216.437 37.432C218.485 33.464 221.237 30.488 224.693 28.504C228.213 26.52 232.117 25.528 236.405 25.528ZM296.785 79V11.8H315.409L342.289 55.672H332.497L358.609 11.8H377.233L377.425 79H356.785L356.593 42.904H359.857L342 72.952H332.017L313.393 42.904H317.425V79H296.785ZM419.482 79V69.688L417.946 67.192V49.528C417.946 46.968 417.146 45.016 415.546 43.672C414.01 42.328 411.482 41.656 407.962 41.656C405.594 41.656 403.194 42.04 400.762 42.808C398.33 43.512 396.25 44.504 394.522 45.784L387.61 31.48C390.682 29.56 394.362 28.088 398.65 27.064C402.938 26.04 407.13 25.528 411.226 25.528C420.25 25.528 427.226 27.544 432.154 31.576C437.146 35.608 439.642 42.008 439.642 50.776V79H419.482ZM404.602 79.96C400.314 79.96 396.73 79.224 393.85 77.752C390.97 76.28 388.794 74.328 387.322 71.896C385.85 69.4 385.114 66.648 385.114 63.64C385.114 60.248 385.978 57.368 387.706 55C389.434 52.632 392.058 50.84 395.578 49.624C399.162 48.408 403.674 47.8 409.114 47.8H420.058V58.264H412.57C410.266 58.264 408.57 58.648 407.482 59.416C406.458 60.12 405.946 61.208 405.946 62.68C405.946 63.896 406.394 64.92 407.29 65.752C408.25 66.52 409.53 66.904 411.13 66.904C412.602 66.904 413.946 66.52 415.162 65.752C416.442 64.92 417.37 63.64 417.946 61.912L420.73 68.344C419.898 72.248 418.138 75.16 415.45 77.08C412.762 79 409.146 79.96 404.602 79.96ZM449.019 79V7.768H470.715V79H449.019ZM508.075 79.96C502.123 79.96 496.843 78.808 492.235 76.504C487.691 74.136 484.107 70.904 481.483 66.808C478.859 62.712 477.547 58.008 477.547 52.696C477.547 47.384 478.859 42.68 481.483 38.584C484.107 34.488 487.691 31.288 492.235 28.984C496.843 26.68 502.123 25.528 508.075 25.528C514.027 25.528 519.307 26.68 523.915 28.984C528.523 31.288 532.107 34.488 534.667 38.584C537.291 42.68 538.603 47.384 538.603 52.696C538.603 58.008 537.291 62.712 534.667 66.808C532.107 70.904 528.523 74.136 523.915 76.504C519.307 78.808 514.027 79.96 508.075 79.96ZM508.075 63.064C509.675 63.064 511.115 62.68 512.395 61.912C513.675 61.144 514.699 59.992 515.467 58.456C516.235 56.856 516.619 54.936 516.619 52.696C516.619 50.392 516.235 48.504 515.467 47.032C514.699 45.496 513.675 44.344 512.395 43.576C511.115 42.808 509.675 42.424 508.075 42.424C506.475 42.424 505.035 42.808 503.755 43.576C502.475 44.344 501.451 45.496 500.683 47.032C499.915 48.504 499.531 50.392 499.531 52.696C499.531 54.936 499.915 56.856 500.683 58.456C501.451 59.992 502.475 61.144 503.755 61.912C505.035 62.68 506.475 63.064 508.075 63.064ZM581.874 25.528C585.906 25.528 589.554 26.36 592.818 28.024C596.082 29.624 598.642 32.152 600.498 35.608C602.418 39.064 603.378 43.544 603.378 49.048V79H581.682V52.792C581.682 49.528 581.106 47.224 579.954 45.88C578.802 44.472 577.234 43.768 575.25 43.768C573.778 43.768 572.402 44.12 571.122 44.824C569.906 45.464 568.914 46.552 568.146 48.088C567.442 49.624 567.09 51.704 567.09 54.328V79H545.394V26.488H566.034V41.848L561.906 37.432C563.954 33.464 566.706 30.488 570.162 28.504C573.682 26.52 577.586 25.528 581.874 25.528ZM642.73 79.96C636.33 79.96 630.73 78.776 625.93 76.408C621.194 74.04 617.514 70.808 614.89 66.712C612.266 62.552 610.954 57.88 610.954 52.696C610.954 47.384 612.234 42.68 614.794 38.584C617.418 34.488 620.97 31.288 625.45 28.984C629.994 26.68 635.082 25.528 640.714 25.528C645.898 25.528 650.666 26.552 655.018 28.6C659.434 30.648 662.954 33.688 665.578 37.72C668.266 41.752 669.61 46.744 669.61 52.696C669.61 53.464 669.578 54.328 669.514 55.288C669.45 56.184 669.386 57.016 669.322 57.784H628.906V47.32H657.802L649.642 50.104C649.642 48.056 649.258 46.328 648.49 44.92C647.786 43.448 646.794 42.328 645.514 41.56C644.234 40.728 642.698 40.312 640.906 40.312C639.114 40.312 637.546 40.728 636.202 41.56C634.922 42.328 633.93 43.448 633.226 44.92C632.522 46.328 632.17 48.056 632.17 50.104V53.368C632.17 55.608 632.618 57.528 633.514 59.128C634.41 60.728 635.69 61.944 637.354 62.776C639.018 63.544 641.034 63.928 643.402 63.928C645.834 63.928 647.818 63.608 649.354 62.968C650.954 62.328 652.618 61.368 654.346 60.088L665.674 71.512C663.114 74.264 659.946 76.376 656.17 77.848C652.458 79.256 647.978 79.96 642.73 79.96ZM687.039 98.584C684.159 98.584 681.215 98.136 678.207 97.24C675.263 96.408 672.895 95.288 671.103 93.88L678.303 79C679.391 79.832 680.607 80.504 681.951 81.016C683.359 81.528 684.703 81.784 685.983 81.784C687.903 81.784 689.375 81.368 690.399 80.536C691.423 79.768 692.255 78.584 692.895 76.984L695.103 71.416L696.639 69.304L713.439 26.488H733.983L712.383 80.056C710.463 84.856 708.223 88.6 705.663 91.288C703.167 93.976 700.351 95.864 697.215 96.952C694.143 98.04 690.751 98.584 687.039 98.584ZM692.127 81.4L669.279 26.488H691.551L707.295 67.384L692.127 81.4Z" fill="white"/>
</g>
<defs>
<filter id="filter0_i_2_126" x="0.283997" y="0.18399" width="733.699" height="102.4" filterUnits="userSpaceOnUse" color-interpolation-filters="sRGB">
<feFlood flood-opacity="0" result="BackgroundImageFix"/>
<feBlend mode="normal" in="SourceGraphic" in2="BackgroundImageFix" result="shape"/>
<feColorMatrix in="SourceAlpha" type="matrix" values="0 0 0 0 0 0 0 0 0 0 0 0 0 0 0 0 0 0 127 0" result="hardAlpha"/>
<feOffset dy="4"/>
<feGaussianBlur stdDeviation="2"/>
<feComposite in2="hardAlpha" operator="arithmetic" k2="-1" k3="1"/>
<feColorMatrix type="matrix" values="0 0 0 0 0 0 0 0 0 0 0 0 0 0 0 0 0 0 0.25 0"/>
<feBlend mode="normal" in2="shape" result="effect1_innerShadow_2_126"/>
</filter>
</defs>
</svg>
