<svg width="125" height="76" viewBox="0 0 125 76" fill="none" xmlns="http://www.w3.org/2000/svg">
<path d="M68.75 44.25H65.625V27.0625C65.625 26.1992 64.9258 25.5 64.0625 25.5H61.4102C60.4844 25.5 59.5801 25.7734 58.8105 26.2871L55.8164 28.2832C55.6456 28.3969 55.499 28.5431 55.3847 28.7135C55.2705 28.884 55.191 29.0752 55.1507 29.2764C55.1105 29.4775 55.1102 29.6846 55.1501 29.8859C55.1899 30.0871 55.269 30.2786 55.3828 30.4492L57.1172 33.0488C57.2309 33.2196 57.3771 33.3663 57.5475 33.4805C57.7179 33.5947 57.9092 33.6742 58.1103 33.7145C58.3115 33.7548 58.5186 33.755 58.7199 33.7152C58.9211 33.6754 59.1125 33.5963 59.2832 33.4824L59.375 33.4219V44.25H56.25C55.3867 44.25 54.6875 44.9492 54.6875 45.8125V48.9375C54.6875 49.8008 55.3867 50.5 56.25 50.5H68.75C69.6133 50.5 70.3125 49.8008 70.3125 48.9375V45.8125C70.3125 44.9492 69.6133 44.25 68.75 44.25ZM118.75 0.5H6.25C2.79883 0.5 0 3.29883 0 6.75V69.25C0 72.7012 2.79883 75.5 6.25 75.5H118.75C122.201 75.5 125 72.7012 125 69.25V6.75C125 3.29883 122.201 0.5 118.75 0.5ZM9.375 66.125V53.625C16.2793 53.625 21.875 59.2207 21.875 66.125H9.375ZM9.375 22.375V9.875H21.875C21.875 16.7793 16.2793 22.375 9.375 22.375ZM62.5 59.875C52.1445 59.875 43.75 50.0801 43.75 38C43.75 25.918 52.1445 16.125 62.5 16.125C72.8555 16.125 81.25 25.918 81.25 38C81.25 50.084 72.8516 59.875 62.5 59.875ZM115.625 66.125H103.125C103.125 59.2207 108.721 53.625 115.625 53.625V66.125ZM115.625 22.375C108.721 22.375 103.125 16.7793 103.125 9.875H115.625V22.375Z" fill="black"/>
</svg>
