<svg width="48" height="47" viewBox="0 0 48 47" fill="none" xmlns="http://www.w3.org/2000/svg">
<path d="M39.9373 2.79938H7.86131C5.44649 2.79938 3.4873 4.75857 3.4873 7.17338V39.2494C3.4873 41.6642 5.44649 43.6234 7.86131 43.6234H39.9373C42.3521 43.6234 44.3113 41.6642 44.3113 39.2494V7.17338C44.3113 4.75857 42.3521 2.79938 39.9373 2.79938ZM28.7563 37.764C27.9908 37.9007 27.7083 37.4269 27.7083 37.035C27.7083 36.543 27.7266 34.0279 27.7266 31.9958C27.7266 30.5743 27.2527 29.6721 26.6968 29.1983C30.0685 28.8247 33.6223 28.3599 33.6223 22.5371C33.6223 20.8786 33.03 20.0493 32.0641 18.9832C32.219 18.5913 32.7384 16.9784 31.9092 14.8826C30.6426 14.4907 27.7448 16.5137 27.7448 16.5137C26.5419 16.1765 25.2388 16.0034 23.954 16.0034C22.6691 16.0034 21.366 16.1765 20.1632 16.5137C20.1632 16.5137 17.2654 14.4907 15.9988 14.8826C15.1695 16.9693 15.6798 18.5822 15.8439 18.9832C14.8779 20.0493 14.4223 20.8786 14.4223 22.5371C14.4223 28.3326 17.8213 28.8247 21.1929 29.1983C20.7555 29.5901 20.3637 30.2645 20.227 31.2304C19.3613 31.6222 17.1469 32.2965 15.8256 29.9637C14.9964 28.524 13.5019 28.4055 13.5019 28.4055C12.0257 28.3873 13.4017 29.335 13.4017 29.335C14.3859 29.7906 15.0784 31.5402 15.0784 31.5402C15.9623 34.2466 20.1905 33.3354 20.1905 33.3354C20.1905 34.602 20.2087 36.6614 20.2087 37.035C20.2087 37.4269 19.9354 37.9007 19.1608 37.764C13.1466 35.7502 8.93658 30.0275 8.93658 23.339C8.93658 14.9737 15.3336 8.62227 23.6988 8.62227C32.0641 8.62227 38.8438 14.9737 38.8438 23.339C38.8529 30.0275 34.7705 35.7593 28.7563 37.764ZM19.8169 32.1963C19.6438 32.2328 19.4797 32.1599 19.4615 32.0414C19.4433 31.9047 19.5618 31.7862 19.7349 31.7498C19.908 31.7316 20.0721 31.8045 20.0903 31.9229C20.1176 32.0414 19.9992 32.1599 19.8169 32.1963ZM18.9512 32.1143C18.9512 32.2328 18.8145 32.333 18.6323 32.333C18.4318 32.3512 18.2951 32.251 18.2951 32.1143C18.2951 31.9958 18.4318 31.8956 18.6141 31.8956C18.7872 31.8774 18.9512 31.9776 18.9512 32.1143ZM17.7028 32.0141C17.6664 32.1325 17.4841 32.1872 17.3292 32.1325C17.1561 32.0961 17.0376 31.9594 17.074 31.8409C17.1105 31.7225 17.2927 31.6678 17.4477 31.7042C17.6299 31.7589 17.7484 31.8956 17.7028 32.0141ZM16.582 31.522C16.5 31.6222 16.3268 31.604 16.1901 31.4673C16.0534 31.3488 16.017 31.1757 16.1081 31.0937C16.1901 30.9935 16.3633 31.0117 16.5 31.1484C16.6184 31.2668 16.664 31.4491 16.582 31.522ZM15.7527 30.6927C15.6707 30.7474 15.5158 30.6927 15.4156 30.5561C15.3153 30.4194 15.3153 30.2645 15.4156 30.2007C15.5158 30.1187 15.6707 30.1824 15.7527 30.3191C15.853 30.4558 15.853 30.6198 15.7527 30.6927ZM15.1604 29.8088C15.0784 29.8908 14.9417 29.8453 14.8415 29.7542C14.7412 29.6357 14.723 29.499 14.805 29.4352C14.887 29.3532 15.0237 29.3988 15.124 29.4899C15.2242 29.6084 15.2424 29.745 15.1604 29.8088ZM14.5499 29.1345C14.5134 29.2165 14.395 29.2347 14.2947 29.171C14.1763 29.1163 14.1216 29.016 14.158 28.934C14.1945 28.8794 14.2947 28.852 14.4132 28.8976C14.5317 28.9614 14.5863 29.0616 14.5499 29.1345Z" fill="#EEEEEE"/>
</svg>
