<svg width="30" height="17" viewBox="0 0 30 17" fill="none" xmlns="http://www.w3.org/2000/svg">
<path d="M20 3.66666C19.0781 3.66666 18.3333 2.92187 18.3333 1.99999C18.3333 1.07812 19.0781 0.333328 20 0.333328H28.3333C29.2552 0.333328 30 1.07812 30 1.99999V10.3333C30 11.2552 29.2552 12 28.3333 12C27.4115 12 26.6667 11.2552 26.6667 10.3333V6.02604L17.8438 14.8437C17.1927 15.4948 16.1354 15.4948 15.4844 14.8437L10 9.35937L2.84375 16.5104C2.19271 17.1615 1.13542 17.1615 0.484375 16.5104C-0.166667 15.8594 -0.166667 14.8021 0.484375 14.151L8.81771 5.8177C9.46875 5.16666 10.526 5.16666 11.1771 5.8177L16.6667 11.3073L24.3073 3.66666H20Z" fill="#4BB543"/>
</svg>
