<svg width="47" height="47" viewBox="0 0 47 47" fill="none" xmlns="http://www.w3.org/2000/svg">
<path d="M23.3371 12.8487C17.5416 12.8487 12.8669 17.5234 12.8669 23.3189C12.8669 29.1145 17.5416 33.7892 23.3371 33.7892C29.1327 33.7892 33.8074 29.1145 33.8074 23.3189C33.8074 17.5234 29.1327 12.8487 23.3371 12.8487ZM23.3371 30.126C19.5919 30.126 16.5301 27.0733 16.5301 23.3189C16.5301 19.5646 19.5828 16.5119 23.3371 16.5119C27.0915 16.5119 30.1442 19.5646 30.1442 23.3189C30.1442 27.0733 27.0824 30.126 23.3371 30.126ZM36.6778 12.4204C36.6778 13.7781 35.5843 14.8625 34.2357 14.8625C32.8779 14.8625 31.7935 13.769 31.7935 12.4204C31.7935 11.0717 32.887 9.97822 34.2357 9.97822C35.5843 9.97822 36.6778 11.0717 36.6778 12.4204ZM43.6124 14.899C43.4575 11.6276 42.7103 8.72981 40.3137 6.34233C37.9262 3.95486 35.0285 3.20763 31.7571 3.04361C28.3855 2.85224 18.2797 2.85224 14.9081 3.04361C11.6458 3.19852 8.74801 3.94574 6.35143 6.33322C3.95484 8.7207 3.21673 11.6185 3.0527 14.8899C2.86134 18.2615 2.86134 28.3672 3.0527 31.7389C3.20761 35.0103 3.95484 37.908 6.35143 40.2955C8.74801 42.683 11.6367 43.4302 14.9081 43.5942C18.2797 43.7856 28.3855 43.7856 31.7571 43.5942C35.0285 43.4393 37.9262 42.6921 40.3137 40.2955C42.7012 37.908 43.4484 35.0103 43.6124 31.7389C43.8038 28.3672 43.8038 18.2706 43.6124 14.899ZM39.2567 35.3565C38.5459 37.1426 37.1699 38.5186 35.3747 39.2385C32.6866 40.3046 26.3078 40.0586 23.3371 40.0586C20.3665 40.0586 13.9786 40.2955 11.2995 39.2385C9.51346 38.5277 8.13748 37.1517 7.41759 35.3565C6.35143 32.6683 6.59746 26.2896 6.59746 23.3189C6.59746 20.3482 6.36054 13.9604 7.41759 11.2813C8.12836 9.49526 9.50435 8.11927 11.2995 7.39938C13.9877 6.33322 20.3665 6.57926 23.3371 6.57926C26.3078 6.57926 32.6957 6.34233 35.3747 7.39938C37.1608 8.11016 38.5368 9.48614 39.2567 11.2813C40.3228 13.9695 40.0768 20.3482 40.0768 23.3189C40.0768 26.2896 40.3228 32.6775 39.2567 35.3565Z" fill="#EEEEEE"/>
</svg>
