<svg width="47" height="47" viewBox="0 0 47 47" fill="none" xmlns="http://www.w3.org/2000/svg">
<path d="M41.1681 2.91602H6.16696C4.56316 2.91602 3.26007 4.23733 3.26007 5.85935V40.7967C3.26007 42.4187 4.56316 43.74 6.16696 43.74H41.1681C42.7719 43.74 44.0841 42.4187 44.0841 40.7967V5.85935C44.0841 4.23733 42.7719 2.91602 41.1681 2.91602ZM15.5984 37.908H9.5477V18.4255H15.6075V37.908H15.5984ZM12.573 15.7646C10.6321 15.7646 9.06473 14.1882 9.06473 12.2563C9.06473 10.3245 10.6321 8.74802 12.573 8.74802C14.5049 8.74802 16.0814 10.3245 16.0814 12.2563C16.0814 14.1973 14.514 15.7646 12.573 15.7646ZM38.2794 37.908H32.2287V28.431C32.2287 26.1711 32.1832 23.2642 29.0849 23.2642C25.932 23.2642 25.449 25.7246 25.449 28.267V37.908H19.3983V18.4255H25.203V21.0863H25.285C26.096 19.5554 28.0734 17.9425 31.0168 17.9425C37.1404 17.9425 38.2794 21.9794 38.2794 27.2282V37.908Z" fill="#EEEEEE"/>
</svg>
