<svg width="48" height="47" viewBox="0 0 48 47" fill="none" xmlns="http://www.w3.org/2000/svg">
<g clip-path="url(#clip0_2_163)">
<path d="M13.616 38.88C11.5424 38.88 9.46881 37.0656 8.43201 36.288C3.24801 32.6592 1.69281 31.3632 0.656006 30.5856V41.472C0.656006 42.9033 1.81674 44.064 3.24801 44.064H23.984C25.4153 44.064 26.576 42.9033 26.576 41.472V30.5856C25.5392 31.3632 23.984 32.6592 18.8 36.288C17.7632 37.0656 15.6896 38.88 13.616 38.88ZM23.984 23.328H3.24801C1.81674 23.328 0.656006 24.4887 0.656006 25.92V27.216C2.72961 28.7712 2.47041 28.7712 9.98721 34.2144C10.7648 34.7328 12.32 36.288 13.616 36.288C14.912 36.288 16.4672 34.7328 17.2448 34.4736C24.7616 29.0304 24.5024 29.0304 26.576 27.4752V25.92C26.576 24.4887 25.4153 23.328 23.984 23.328ZM44.72 15.552H18.8C17.3687 15.552 16.208 16.7127 16.208 18.144V20.736H23.984C26.674 20.736 28.8918 22.795 29.1445 25.4194L29.168 25.4016V36.288H44.72C46.1513 36.288 47.312 35.1273 47.312 33.696V18.144C47.312 16.7127 46.1513 15.552 44.72 15.552ZM42.128 25.92H36.944V20.736H42.128V25.92ZM13.616 18.144C13.616 15.2855 15.9415 12.96 18.8 12.96H36.944V5.18398C36.944 3.75271 35.7833 2.59198 34.352 2.59198H8.43201C7.00074 2.59198 5.84001 3.75271 5.84001 5.18398V20.736H13.616V18.144Z" fill="#EEEEEE"/>
</g>
<defs>
<clipPath id="clip0_2_163">
<rect width="46.656" height="46.656" fill="white" transform="translate(0.656006)"/>
</clipPath>
</defs>
</svg>
