<svg width="76" height="62" viewBox="0 0 76 62" fill="none" xmlns="http://www.w3.org/2000/svg">
<path d="M67.7905 15.724C67.8381 16.3902 67.8381 17.0565 67.8381 17.7228C67.8381 38.0431 52.3719 61.4568 24.1041 61.4568C15.3953 61.4568 7.30522 58.9345 0.5 54.5565C1.73735 54.6992 2.92695 54.7468 4.21191 54.7468C11.3977 54.7468 18.0126 52.3199 23.295 48.1796C16.5374 48.0368 10.8743 43.6111 8.92314 37.5197C9.875 37.6623 10.8267 37.7576 11.8262 37.7576C13.2062 37.7576 14.5864 37.5671 15.8712 37.2342C8.82808 35.8064 3.54556 29.6199 3.54556 22.1485V21.9582C5.5918 23.1003 7.97144 23.8142 10.4935 23.9092C6.35322 21.149 3.64077 16.4378 3.64077 11.1078C3.64077 8.25254 4.40205 5.63516 5.73462 3.35088C13.3013 12.6783 24.675 18.7695 37.4287 19.4359C37.1908 18.2937 37.048 17.1041 37.048 15.9144C37.048 7.44351 43.9008 0.543213 52.4192 0.543213C56.8449 0.543213 60.8423 2.39917 63.6501 5.39727C67.124 4.73105 70.4552 3.44609 73.4059 1.68535C72.2636 5.25459 69.8366 8.25268 66.6482 10.1561C69.7416 9.82314 72.7396 8.96636 75.4997 7.77676C73.4062 10.8223 70.7886 13.5348 67.7905 15.724Z" fill="#1DA1F2"/>
</svg>
